{"title":"Brooklyns.Finest.DVDRip.XviD-DiAMOND","uid":5645186,"size":1468067325,"categoryP":"video","categoryS":"movies","magnet":"?xt=urn:btih:65bef4b0e9a3647cab66cffa8b4995ca3cdf916a&amp;dn=Brooklyns.Finest.DVDRip.XviD-DiAMOND&amp;tr=udp%3A%2F%2Ftracker.openbittorrent.com%3A80&amp;tr=udp%3A%2F%2Fopen.demonii.com%3A1337&amp;tr=udp%3A%2F%2Ftracker.coppersurfer.tk%3A6969&amp;tr=udp%3A%2F%2Fexodus.desync.com%3A6969","seeders":0,"leechers":0,"uploader":".BONE.","files":101,"time":1277261424,"description":"Three unconnected Brooklyn cops wind up at the same deadly location after enduring vastly different career paths.\n\n\n11ion86.jpg\nVideo\nID : 0\nFormat : MPEG-4 Visual\nFormat profile : Advanced Simple@L5\nFormat settings, BVOP : Yes\nFormat settings, QPel : No\nFormat settings, GMC : No warppoints\nFormat settings, Matrix : Default (MPEG)\nMuxing mode : Packed bitstream\nCodec ID : XVID\nCodec ID/Hint : XviD\nBit rate : 1 078 Kbps\nWidth : 640 pixels\nHeight : 272 pixels\nDisplay aspect ratio : 2.35:1\nFrame rate : 23.976 fps\nResolution : 8 bits\nColorimetry : 4:2:0\nScan type : Progressive\nBits/(Pixel*Frame) : 0.258\nStream size : 491 MiB (70%)\nWriting library : XviD 1.2.1 (UTC 2008-12-04)\n\nAudio\nID : 1\nFormat : AC-3\nFormat/Info : Audio Coding 3\nCodec ID : 2000\nBit rate mode : Constant\nBit rate : 448 Kbps\nChannel(s) : 6 channels\nChannel positions : Front: L C R, Surround: L R, LFE\nSampling rate : 48.0 KHz\nStream size : 204 MiB (29%)\nAlignment : Split accross interleaves\nInterleave, duration : 42 ms (1.00 video frame)\nInterleave, preload duration : 500 ms\n","torrent":{"xt":"urn:btih:65bef4b0e9a3647cab66cffa8b4995ca3cdf916a","amp;dn":"Brooklyns.Finest.DVDRip.XviD-DiAMOND","amp;tr":["udp%3A%2F%2Ftracker.openbittorrent.com%3A80","udp%3A%2F%2Fopen.demonii.com%3A1337","udp%3A%2F%2Ftracker.coppersurfer.tk%3A6969","udp%3A%2F%2Fexodus.desync.com%3A6969"],"infoHash":"65bef4b0e9a3647cab66cffa8b4995ca3cdf916a","infoHashBuffer":{"type":"Buffer","data":[101,190,244,176,233,163,100,124,171,102,207,250,139,73,149,202,60,223,145,106]},"announce":[],"urlList":[]}}